<svg id="레이어_1" data-name="레이어 1" xmlns="http://www.w3.org/2000/svg" viewBox="0 0 90.38 24.38"><defs><style>.cls-1{fill:#a97dc5;}.cls-2{fill:#8c5aa6;}.cls-3{fill:#d995d3;}</style></defs><path class="cls-1" d="M24.37,12.19A12.19,12.19,0,1,0,12.19,24.37h0A12.17,12.17,0,0,0,24.37,12.19ZM7.44,14.73a1.13,1.13,0,0,1-1.6,0,1.09,1.09,0,0,1-.33-.8,1.14,1.14,0,0,1,.33-.8l5.53-5.51a1.13,1.13,0,0,1,1.56,0l5.6,5.59a1.12,1.12,0,0,1,0,1.6,1.13,1.13,0,0,1-1.6,0l-4.75-4.8Z" transform="translate(0 0)"/><path class="cls-2" d="M57.37,12.19A12.19,12.19,0,1,0,45.19,24.37h0A12.17,12.17,0,0,0,57.37,12.19ZM40.44,14.73a1.13,1.13,0,0,1-1.6,0,1.09,1.09,0,0,1-.33-.8,1.14,1.14,0,0,1,.33-.8l5.53-5.51a1.13,1.13,0,0,1,1.56,0l5.6,5.59a1.12,1.12,0,0,1,0,1.6,1.13,1.13,0,0,1-1.6,0l-4.75-4.8Z" transform="translate(0 0)"/><path class="cls-3" d="M90.37,12.19A12.19,12.19,0,1,0,78.19,24.37h0A12.17,12.17,0,0,0,90.37,12.19ZM73.44,14.73a1.13,1.13,0,0,1-1.6,0,1.09,1.09,0,0,1-.33-.8,1.14,1.14,0,0,1,.33-.8l5.53-5.51a1.13,1.13,0,0,1,1.56,0l5.6,5.59a1.12,1.12,0,0,1,0,1.6,1.13,1.13,0,0,1-1.6,0l-4.75-4.8Z" transform="translate(0 0)"/></svg>