<?xml version="1.0" encoding="utf-8"?>
<!-- Generator: Adobe Illustrator 26.0.0, SVG Export Plug-In . SVG Version: 6.00 Build 0)  -->
<svg version="1.1" id="레이어_1" xmlns="http://www.w3.org/2000/svg" xmlns:xlink="http://www.w3.org/1999/xlink" x="0px"
	 y="0px" viewBox="0 0 90.4 24.4" style="enable-background:new 0 0 90.4 24.4;" xml:space="preserve">
<style type="text/css">
	.st0{fill:#FFFFFF;}
	.st1{fill:#A97DC5;}
	.st2{fill:#8C5AA6;}
	.st3{fill:#D995D3;}
</style>
<polygon class="st0" points="12.1,5.2 4,15.1 20.2,15.1 "/>
<polygon class="st0" points="45.2,5.2 37.1,15.1 53.3,15.1 "/>
<polygon class="st0" points="78.3,5.2 70.1,15.1 86.4,15.1 "/>
<path class="st1" d="M24.4,12.2C24.4,5.5,18.9,0,12.2,0S0,5.4,0,12.2s5.4,12.2,12.2,12.2c0,0,0,0,0,0l0,0
	C18.9,24.4,24.4,18.9,24.4,12.2C24.4,12.2,24.4,12.2,24.4,12.2z M7.4,14.7c-0.4,0.4-1.2,0.4-1.6,0c0,0,0,0,0,0
	c-0.2-0.2-0.3-0.5-0.3-0.8c0-0.3,0.1-0.6,0.3-0.8l5.5-5.5c0.4-0.4,1.1-0.4,1.6,0l5.6,5.6c0.4,0.4,0.4,1.1,0,1.6c0,0,0,0,0,0
	c-0.4,0.4-1.2,0.4-1.6,0c0,0,0,0,0,0L12.2,10L7.4,14.7z"/>
<path class="st2" d="M57.4,12.2C57.4,5.5,51.9,0,45.2,0S33,5.4,33,12.2s5.4,12.2,12.2,12.2c0,0,0,0,0,0l0,0
	C51.9,24.4,57.4,18.9,57.4,12.2C57.4,12.2,57.4,12.2,57.4,12.2z M40.4,14.7c-0.4,0.4-1.2,0.4-1.6,0c0,0,0,0,0,0
	c-0.2-0.2-0.3-0.5-0.3-0.8c0-0.3,0.1-0.6,0.3-0.8l5.5-5.5c0.4-0.4,1.1-0.4,1.6,0l5.6,5.6c0.4,0.4,0.4,1.1,0,1.6c0,0,0,0,0,0
	c-0.4,0.4-1.2,0.4-1.6,0c0,0,0,0,0,0L45.2,10L40.4,14.7z"/>
<path class="st3" d="M90.4,12.2C90.4,5.5,84.9,0,78.2,0C71.5,0,66,5.4,66,12.2c0,6.7,5.4,12.2,12.2,12.2c0,0,0,0,0,0l0,0
	C84.9,24.4,90.4,18.9,90.4,12.2C90.4,12.2,90.4,12.2,90.4,12.2z M73.4,14.7c-0.4,0.4-1.2,0.4-1.6,0c0,0,0,0,0,0
	c-0.2-0.2-0.3-0.5-0.3-0.8c0-0.3,0.1-0.6,0.3-0.8l5.5-5.5c0.4-0.4,1.1-0.4,1.6,0l5.6,5.6c0.4,0.4,0.4,1.1,0,1.6c0,0,0,0,0,0
	c-0.4,0.4-1.2,0.4-1.6,0c0,0,0,0,0,0L78.2,10L73.4,14.7z"/>
</svg>
