<svg id="레이어_1" data-name="레이어 1" xmlns="http://www.w3.org/2000/svg" viewBox="0 0 153 49"><defs><style>.cls-1{fill:#d995d3;}.cls-2{fill:#a97dc5;}.cls-3{fill:#8c5aa6;}</style></defs><path class="cls-1" d="M98.36,49H54.64A3.83,3.83,0,0,1,51,45V41a3.83,3.83,0,0,1,3.64-4H98.36A3.83,3.83,0,0,1,102,41v4a3.83,3.83,0,0,1-3.64,4Zm0-18.5H54.64a3.83,3.83,0,0,1-3.64-4v-4a3.84,3.84,0,0,1,3.64-4H98.36a3.85,3.85,0,0,1,3.64,4v4a3.82,3.82,0,0,1-3.64,4Zm0-18.47H54.64A3.83,3.83,0,0,1,51,8V4a3.83,3.83,0,0,1,3.64-4H98.36A3.83,3.83,0,0,1,102,4V8a3.83,3.83,0,0,1-3.64,4Z" transform="translate(0 0.02)"/><path class="cls-2" d="M47.36,49H3.64A3.83,3.83,0,0,1,0,45V41a3.83,3.83,0,0,1,3.64-4H47.36A3.84,3.84,0,0,1,51,41v4a3.83,3.83,0,0,1-3.64,4Zm0-18.5H3.64a3.83,3.83,0,0,1-3.64-4v-4a3.85,3.85,0,0,1,3.64-4H47.36a3.85,3.85,0,0,1,3.64,4v4a3.82,3.82,0,0,1-3.64,4Zm0-18.47H3.64A3.83,3.83,0,0,1,0,8V4A3.83,3.83,0,0,1,3.64,0H47.36A3.83,3.83,0,0,1,51,4V8a3.85,3.85,0,0,1-3.64,4h0Z" transform="translate(0 0.02)"/><path class="cls-3" d="M149.36,49H105.64A3.83,3.83,0,0,1,102,45V41a3.83,3.83,0,0,1,3.64-4h43.72A3.83,3.83,0,0,1,153,41v4a3.84,3.84,0,0,1-3.64,4h0Zm0-18.5H105.64a3.82,3.82,0,0,1-3.64-4v-4a3.83,3.83,0,0,1,3.64-4h43.72a3.83,3.83,0,0,1,3.64,4v4a3.83,3.83,0,0,1-3.64,4Zm0-18.46H105.64A3.83,3.83,0,0,1,102,8V4a3.83,3.83,0,0,1,3.64-4h43.72A3.83,3.83,0,0,1,153,4V8a3.83,3.83,0,0,1-3.64,4Z" transform="translate(0 0.02)"/></svg>