<svg id="레이어_1" data-name="레이어 1" xmlns="http://www.w3.org/2000/svg" viewBox="0 0 71.5 23.49"><defs><style>.cls-1{fill:#a97dc5;}.cls-2{fill:#d995d3;}.cls-3{fill:#8c5aa6;}</style></defs><g id="icon"><g id="icon-2"><g id="그룹_3" data-name="그룹 3"><path id="패스_11" data-name="패스 11" class="cls-1" d="M23.75,21.32l-4.16-4.24a10.85,10.85,0,0,0,1.84-6A10.59,10.59,0,1,0,10.84,21.81a10.36,10.36,0,0,0,6.4-2.26l4.11,4.2ZM10.84,18.37A7.34,7.34,0,1,1,18,10.9V11A7.27,7.27,0,0,1,10.84,18.37Z" transform="translate(-0.25 -0.25)"/></g></g><path id="Color_Overlay" data-name="Color Overlay" class="cls-1" d="M16.54,18.77a9.94,9.94,0,0,1-6.14,2.16A10.26,10.26,0,0,1,.25,10.59,10.26,10.26,0,0,1,10.4.25,10.27,10.27,0,0,1,20.56,10.59a10.4,10.4,0,0,1-1.77,5.8l4,4.06-2.29,2.34Zm-13-8.18a7,7,0,0,0,6.9,7,7,7,0,0,0,6.9-7,7,7,0,0,0-6.9-7A7,7,0,0,0,3.5,10.59Z" transform="translate(-0.25 -0.25)"/></g><g id="icon-2-2" data-name="icon"><g id="icon-2-3" data-name="icon-2"><g id="그룹_3-2" data-name="그룹 3"><path id="패스_11-2" data-name="패스 11" class="cls-2" d="M47.75,21.32l-4.16-4.24a10.85,10.85,0,0,0,1.84-6A10.59,10.59,0,1,0,34.84,21.81a10.36,10.36,0,0,0,6.4-2.26l4.11,4.2ZM34.84,18.37A7.34,7.34,0,1,1,42,10.9V11A7.27,7.27,0,0,1,34.84,18.37Z" transform="translate(-0.25 -0.25)"/></g></g><path id="Color_Overlay-2" data-name="Color Overlay" class="cls-2" d="M40.54,18.77a9.94,9.94,0,0,1-6.14,2.16A10.26,10.26,0,0,1,24.25,10.59a10.16,10.16,0,1,1,20.31,0,10.4,10.4,0,0,1-1.77,5.8l4,4.06-2.29,2.34Zm-13-8.18a6.9,6.9,0,1,0,13.8,0,6.9,6.9,0,1,0-13.8,0Z" transform="translate(-0.25 -0.25)"/></g><g id="icon-3" data-name="icon"><g id="icon-2-4" data-name="icon-2"><g id="그룹_3-3" data-name="그룹 3"><path id="패스_11-3" data-name="패스 11" class="cls-3" d="M71.75,21.32l-4.16-4.24a10.85,10.85,0,0,0,1.84-6A10.59,10.59,0,1,0,58.84,21.81a10.36,10.36,0,0,0,6.4-2.26l4.11,4.2ZM58.84,18.37A7.34,7.34,0,1,1,66,10.9V11A7.27,7.27,0,0,1,58.84,18.37Z" transform="translate(-0.25 -0.25)"/></g></g><path id="Color_Overlay-3" data-name="Color Overlay" class="cls-3" d="M64.54,18.77a9.94,9.94,0,0,1-6.14,2.16A10.26,10.26,0,0,1,48.25,10.59a10.16,10.16,0,1,1,20.31,0,10.4,10.4,0,0,1-1.77,5.8l4,4.06-2.29,2.34Zm-13-8.18a6.9,6.9,0,1,0,13.8,0,6.9,6.9,0,1,0-13.8,0Z" transform="translate(-0.25 -0.25)"/></g></svg>